<svg xmlns="http://www.w3.org/2000/svg" viewBox="0 0 1364 960"><path fill="#736fc7" d="M425.378 546.968c-.044 0-.088-.003-.133-.008-.036-.005-3.747-.46-9.673-1.466a1.081 1.081 0 0 1-.885-1.248c.1-.589.654-.988 1.248-.885 5.871.996 9.536 1.447 9.573 1.451a1.082 1.082 0 0 1-.13 2.156zM396.674 541.7a1.14 1.14 0 0 1-.244-.027c-6.58-1.514-12.939-3.193-18.902-4.991a1.083 1.083 0 0 1 .624-2.072c5.916 1.784 12.229 3.451 18.762 4.954a1.082 1.082 0 0 1-.24 2.136zm-37.221-11.39a1.07 1.07 0 0 1-.405-.079c-6.58-2.663-12.519-5.54-17.654-8.55a1.082 1.082 0 1 1 1.095-1.867c5.044 2.957 10.889 5.786 17.371 8.411a1.08 1.08 0 0 1-.407 2.085zm-32.943-20.244a1.08 1.08 0 0 1-.78-.332c-5.146-5.35-8.433-11.133-9.771-17.186a1.082 1.082 0 0 1 2.113-.467c1.25 5.659 4.351 11.093 9.217 16.152a1.082 1.082 0 0 1-.779 1.833zm-7.585-35.725a1.082 1.082 0 0 1-1.007-1.477c1.662-4.252 4.139-8.676 7.362-13.151a67.766 67.766 0 0 1 2.871-3.703 1.08 1.08 0 1 1 1.663 1.385 65.248 65.248 0 0 0-2.778 3.583c-3.118 4.328-5.507 8.592-7.103 12.675a1.083 1.083 0 0 1-1.008.688zm24.269-29.742a1.082 1.082 0 0 1-.641-1.955c4.926-3.617 10.569-7.034 16.773-10.154a1.083 1.083 0 0 1 .972 1.934c-6.096 3.065-11.635 6.418-16.464 9.964a1.074 1.074 0 0 1-.64.211zm34.49-17.717a1.082 1.082 0 0 1-.372-2.099c5.773-2.112 12.04-4.102 18.627-5.915a1.082 1.082 0 1 1 .575 2.086c-6.531 1.797-12.741 3.769-18.458 5.86a1.058 1.058 0 0 1-.372.068zm639.686-2.9h-.004c-6.201-.022-12.756-.095-19.483-.217a1.082 1.082 0 0 1 .019-2.165h.02c6.717.122 13.262.195 19.452.217a1.082 1.082 0 0 1-.004 2.165zm19.46-.112a1.08 1.08 0 0 1-.016-2.164 765.345 765.345 0 0 0 19.425-.54c.58-.057 1.1.439 1.125 1.037a1.08 1.08 0 0 1-1.037 1.125c-6.131.253-12.685.435-19.48.542h-.017zm-58.392-.576-.033-.001c-6.23-.186-12.78-.412-19.468-.672a1.082 1.082 0 0 1-1.039-1.123c.024-.597.503-1.072 1.123-1.039 6.681.259 13.224.486 19.448.671a1.082 1.082 0 0 1-.031 2.164zm97.272-1.084a1.082 1.082 0 0 1-.082-2.161c6.863-.522 13.358-1.172 19.307-1.931a1.081 1.081 0 1 1 .273 2.147c-5.985.763-12.518 1.416-19.417 1.942a1.038 1.038 0 0 1-.081.003zm-136.179-.417-.051-.001c-6.406-.295-12.892-.615-19.452-.955a1.08 1.08 0 1 1 .112-2.16c6.556.34 13.038.659 19.44.954a1.082 1.082 0 0 1-.049 2.162zm-38.886-2.006-.062-.002c-6.423-.36-12.905-.736-19.44-1.125a1.081 1.081 0 1 1 .128-2.16c6.532.387 13.012.763 19.433 1.124a1.083 1.083 0 0 1-.059 2.163zm-38.87-2.303c-.022 0-.045 0-.068-.002-6.437-.396-12.917-.801-19.432-1.212a1.083 1.083 0 0 1 .136-2.16c6.514.41 12.993.816 19.429 1.212a1.081 1.081 0 0 1-.065 2.162zm252.493-.378a1.082 1.082 0 0 1-.223-2.141l.634-.134a201.999 201.999 0 0 0 18.084-4.74 1.082 1.082 0 0 1 .648 2.064 204.235 204.235 0 0 1-18.279 4.791l-.641.136a1.057 1.057 0 0 1-.223.024zm-699.126-.673a1.083 1.083 0 0 1-.222-2.141 417.385 417.385 0 0 1 19.186-3.551 1.083 1.083 0 0 1 .345 2.137 414.648 414.648 0 0 0-19.086 3.532 1.056 1.056 0 0 1-.223.023zm407.773-1.392c-.023 0-.046 0-.07-.002l-19.43-1.235a1.082 1.082 0 0 1 .138-2.16l19.429 1.235a1.082 1.082 0 0 1-.067 2.162zm-38.89-2.46-.069-.002c-6.47-.404-12.955-.805-19.45-1.2a1.08 1.08 0 1 1 .131-2.159c6.495.395 12.982.796 19.454 1.2a1.082 1.082 0 0 1-.066 2.161zm-38.897-2.36-.064-.002a6678.27 6678.27 0 0 0-19.434-1.107 1.083 1.083 0 0 1-1.021-1.14 1.087 1.087 0 0 1 1.14-1.021c6.478.359 12.961.729 19.44 1.108a1.083 1.083 0 0 1-.061 2.162zm-291.582-.067a1.082 1.082 0 0 1-.132-2.156 646.5 646.5 0 0 1 19.383-2.095 1.081 1.081 0 1 1 .201 2.155 649.473 649.473 0 0 0-19.318 2.088c-.045.005-.09.008-.134.008zm252.714-2.081-.057-.002c-6.485-.334-12.961-.655-19.421-.958a1.082 1.082 0 0 1-1.03-1.132 1.09 1.09 0 0 1 1.132-1.03c6.463.304 12.942.625 19.43.959a1.082 1.082 0 0 1-.054 2.163zm-213.962-1.571a1.082 1.082 0 0 1-.073-2.162 937.912 937.912 0 0 1 19.454-1.119c.58-.016 1.104.433 1.132 1.03a1.082 1.082 0 0 1-1.03 1.132 933.225 933.225 0 0 0-19.483 1.119zm175.116-.25-.046-.001c-6.507-.271-12.991-.521-19.446-.748a1.082 1.082 0 1 1 .076-2.163c6.459.228 12.949.479 19.46.749a1.082 1.082 0 0 1-.044 2.163zm483.886-.855a1.081 1.081 0 0 1-.436-2.073c6.002-2.637 11.775-5.612 17.16-8.84a1.083 1.083 0 0 1 1.112 1.856c-5.462 3.275-11.317 6.291-17.402 8.965a1.078 1.078 0 0 1-.434.092zm-522.798-.509-.031-.001a2361.5 2361.5 0 0 0-19.453-.462 1.082 1.082 0 0 1-1.061-1.103c.012-.598.503-1.044 1.103-1.061 6.28.122 12.831.278 19.471.463a1.08 1.08 0 0 1 1.051 1.112 1.08 1.08 0 0 1-1.08 1.052zm-97.321-.249a1.081 1.081 0 0 1-.032-2.164c6.298-.187 12.851-.331 19.477-.427.563-.004 1.089.469 1.098 1.066a1.083 1.083 0 0 1-1.066 1.098c-6.615.096-13.157.24-19.444.426l-.033.001zm58.391-.499h-.01c-5.724-.055-11.413-.084-16.907-.084l-2.547.002h-.002a1.082 1.082 0 0 1-.002-2.164l2.551-.002c5.502 0 11.197.028 16.928.083a1.082 1.082 0 0 1-.011 2.165zm594.943-18.774a1.083 1.083 0 0 1-.683-1.922c5.05-4.1 9.75-8.561 13.971-13.26a1.083 1.083 0 0 1 1.611 1.446 125.478 125.478 0 0 1-14.217 13.494 1.078 1.078 0 0 1-.682.242zm25.824-28.863a1.08 1.08 0 0 1-.914-1.66 110.329 110.329 0 0 0 8.819-17.102 1.084 1.084 0 0 1 2.004.82 112.636 112.636 0 0 1-8.992 17.438 1.086 1.086 0 0 1-.917.504zM1225 320.675a1.083 1.083 0 0 1-1.059-1.31 113.54 113.54 0 0 0 2.448-19.089 1.083 1.083 0 0 1 2.162.092 115.76 115.76 0 0 1-2.494 19.454c-.11.507-.559.853-1.057.853zm1.713-38.691c-.54 0-1.007-.404-1.073-.954a127.11 127.11 0 0 0-3.751-18.903 1.082 1.082 0 0 1 2.085-.579 129.32 129.32 0 0 1 3.815 19.225 1.083 1.083 0 0 1-1.076 1.211zm-10.314-37.372c-.417 0-.814-.243-.992-.648a147.074 147.074 0 0 0-8.902-17.124 1.082 1.082 0 1 1 1.851-1.121 149.302 149.302 0 0 1 9.033 17.376 1.08 1.08 0 0 1-.99 1.517zm-20.05-33.227c-.32 0-.637-.142-.851-.413a171.357 171.357 0 0 0-12.802-14.474 1.083 1.083 0 0 1 1.539-1.522c4.63 4.68 8.992 9.611 12.964 14.657a1.083 1.083 0 0 1-.85 1.752zm-27.279-27.64c-.241 0-.483-.08-.685-.245a199.345 199.345 0 0 0-15.559-11.491 1.082 1.082 0 0 1 1.2-1.8 201.668 201.668 0 0 1 15.729 11.617 1.082 1.082 0 0 1-.685 1.919zm-32.302-21.595c-.174 0-.352-.042-.516-.132a234.055 234.055 0 0 0-17.383-8.524 1.081 1.081 0 1 1 .872-1.98 235.478 235.478 0 0 1 17.545 8.603 1.082 1.082 0 0 1-.518 2.033zm-35.555-15.704c-.119 0-.24-.02-.359-.062a272.843 272.843 0 0 0-11.47-3.744 958.11 958.11 0 0 0-7.031-2.093 1.082 1.082 0 1 1 .61-2.076c2.341.687 4.69 1.387 7.046 2.098a273.832 273.832 0 0 1 11.562 3.774 1.082 1.082 0 0 1-.358 2.103zm-37.279-11.156a1.08 1.08 0 0 1-.285-.038 1002.306 1002.306 0 0 0-18.806-4.926 1.082 1.082 0 1 1 .527-2.099 996.986 996.986 0 0 1 18.847 4.936 1.082 1.082 0 0 1-.283 2.127zm-37.746-9.49a1.14 1.14 0 0 1-.244-.027 986.21 986.21 0 0 0-18.986-4.181 1.08 1.08 0 0 1-.836-1.281 1.077 1.077 0 0 1 1.281-.836 992.126 992.126 0 0 1 19.027 4.189 1.083 1.083 0 0 1-.242 2.136zm-38.092-7.995a1.07 1.07 0 0 1-.202-.019 989.856 989.856 0 0 0-19.136-3.428 1.083 1.083 0 0 1 .36-2.134 977.72 977.72 0 0 1 19.178 3.435 1.082 1.082 0 0 1-.2 2.146zm-38.378-6.482a1.1 1.1 0 0 1-.161-.012 965.73 965.73 0 0 0-19.257-2.661 1.082 1.082 0 1 1 .275-2.147 971.135 971.135 0 0 1 19.301 2.666 1.082 1.082 0 0 1-.158 2.154zm-38.609-4.935c-.039 0-.078-.002-.117-.006a927.426 927.426 0 0 0-19.35-1.868 1.083 1.083 0 0 1 .185-2.156c6.412.551 12.937 1.18 19.396 1.872a1.083 1.083 0 0 1-.114 2.158zm-38.783-3.327-.07-.002a853.902 853.902 0 0 0-19.413-1.023 1.082 1.082 0 0 1-1.037-1.125c.024-.598.503-1.093 1.125-1.037 6.379.262 12.926.607 19.462 1.025a1.083 1.083 0 0 1-.067 2.162zm-38.894-1.588h-.018a712.408 712.408 0 0 0-19.432-.057 1.075 1.075 0 0 1-1.095-1.069 1.082 1.082 0 0 1 1.069-1.095 716.84 716.84 0 0 1 19.493.057 1.082 1.082 0 0 1-.017 2.164zM784.813 102.577a1.082 1.082 0 0 1-.097-2.16c.034-.003 3.458-.312 9.761-.614a1.083 1.083 0 0 1 .104 2.162c-6.25.299-9.635.604-9.668.608-.034.002-.067.004-.1.004z" class="color736FC7 svgShape"/><path fill="#ffbde2" d="M604.033 335.497c-2.424.075-4.711-1.537-5.822-3.689-1.111-2.152-1.161-4.738-.548-7.082.613-2.344 1.841-4.48 3.197-6.488 2.245-3.323 4.992-6.458 8.423-8.468a114.807 114.807 0 0 0-17.426-2.792c-.534-.044-1.069-.078-1.604-.115l-.146 12.596c-.032 2.801-.08 5.682-1.157 8.27-1.076 2.588-3.441 4.845-6.245 4.932-2.424.075-4.711-1.537-5.822-3.689-1.111-2.151-1.161-4.738-.548-7.081s1.841-4.48 3.197-6.489c2.315-3.428 5.164-6.656 8.749-8.656a117.06 117.06 0 0 0-19.588.631l-.638 12.756c-.14 2.798-.299 5.675-1.474 8.22-1.175 2.545-3.624 4.71-6.429 4.689-2.425-.018-4.648-1.716-5.676-3.909-1.028-2.193-.978-4.78-.276-7.098.702-2.318 2.011-4.406 3.444-6.362 2.293-3.13 5.049-6.068 8.401-7.956a115.346 115.346 0 0 0-13.905 2.819c-1.354.363-2.697.761-4.035 1.175l-1.089 13.097c-.232 2.792-.485 5.663-1.744 8.167-1.258 2.504-3.777 4.588-6.58 4.476-2.423-.098-4.589-1.868-5.544-4.093-.955-2.225-.821-4.809-.042-7.103.778-2.294 2.155-4.338 3.651-6.245 2.137-2.725 4.639-5.281 7.577-7.064a110.433 110.433 0 0 0-13.12 5.551L524.2 329.22c-1.534 2.346-3.125 4.751-5.425 6.357-2.3 1.606-5.508 2.242-7.918.81-2.084-1.238-3.145-3.824-2.924-6.236.221-2.411 1.571-4.621 3.348-6.269 1.778-1.648 3.962-2.793 6.186-3.759 4.098-1.782 8.596-3.034 13.01-2.526.014-.008.024-.017.039-.024a111.256 111.256 0 0 1 13.975-5.88c-3.604-.059-7.209-1.131-10.553-2.555-2.23-.95-4.422-2.077-6.21-3.712-1.788-1.635-3.152-3.833-3.389-6.243-.237-2.41.808-5.004 2.883-6.258 2.401-1.45 5.613-.838 7.923.75 2.31 1.588 3.916 3.981 5.466 6.315l7.08 10.664a115.16 115.16 0 0 1 18.104-4.049c-3.689-.888-7.107-2.906-10.145-5.232-1.924-1.473-3.767-3.109-5.093-5.136s-2.1-4.495-1.73-6.889c.37-2.393 2.026-4.649 4.348-5.349 2.686-.81 5.645.579 7.487 2.69 1.843 2.111 2.804 4.828 3.725 7.473l4.204 12.082c.193-.022.386-.049.58-.071 6.35-.703 12.754-.887 19.13-.561-3.973-1.514-7.316-4.469-10.117-7.705-1.585-1.832-3.058-3.806-3.945-6.059-.887-2.254-1.145-4.828-.297-7.097.848-2.27 2.927-4.143 5.342-4.359 2.794-.25 5.41 1.709 6.786 4.149 1.376 2.44 1.766 5.295 2.131 8.072l1.721 13.092.267.019.076-.099-.001.104a116.8 116.8 0 0 1 18.419 2.731c-2.746-2.654-4.7-6.137-6.172-9.698-.943-2.281-1.732-4.664-1.866-7.128-.134-2.465.444-5.038 1.991-6.961 1.547-1.923 4.156-3.068 6.558-2.502 2.779.655 4.677 3.39 5.223 6.192.546 2.803.007 5.69-.532 8.493l-2.295 11.947-.004.369a111.21 111.21 0 0 1 19.293 6.949c.655.307.3 1.389-.363 1.077a111.04 111.04 0 0 0-18.944-6.853l-.139 11.949c-.033 2.801-.081 5.682-1.157 8.27-1.075 2.589-3.439 4.847-6.243 4.933z" class="colorFFBDE2 svgShape"/><path fill="#736fc7" d="m646.628 307.968-4.508 9.499c-4.042-8.751-8.128-17.592-14.011-25.229-17.485-22.691-47.815-31.219-76.364-33.597-28.539-2.388-57.721-.079-85.465-7.221-7.869-2.019-16.66-5.977-18.474-13.894a13.242 13.242 0 0 1-.145-4.925c12.567-2.741 25.272-4.788 38.094-5.874 19.939-1.69 40.187-1.059 59.82 3.044 16.166 3.386 31.854 9.193 46.191 17.421 14.137 8.102 26.984 18.622 37.139 31.407 5.26 6.622 9.554 13.813 13.469 21.294 1.41 2.692 2.791 5.396 4.254 8.075z" class="color736FC7 svgShape"/><path fill="#8c88db" d="m653.275 293.945-6.103 12.874-.544 1.149c-1.462-2.68-2.843-5.384-4.255-8.076-3.915-7.481-8.209-14.672-13.469-21.294-10.155-12.785-23.002-23.305-37.139-31.407-14.337-8.228-30.024-14.035-46.191-17.421-19.633-4.104-39.881-4.735-59.82-3.044-12.822 1.086-25.527 3.133-38.094 5.874.048-.371.117-.744.207-1.107.687-3.188 2.344-6.257 4.324-8.896 9.783-13.067 26.719-18.584 42.901-20.786 50.559-6.885 104.002 13.131 137.621 51.525 10.144 11.594 18.781 25.306 20.562 40.609z" class="color8C88DB svgShape"/><path fill="#ffffff" d="m647.172 306.819-.544 1.149c-1.462-2.68-2.843-5.384-4.255-8.076-3.915-7.481-8.209-14.672-13.469-21.294-10.155-12.785-23.002-23.305-37.139-31.407-14.337-8.228-30.024-14.035-46.191-17.421-19.633-4.104-39.881-4.735-59.82-3.044-12.822 1.086-25.527 3.133-38.094 5.874.048-.371.117-.744.207-1.107 14.861-3.213 29.932-5.458 45.115-6.3 19.58-1.092 39.441.169 58.52 4.879 16.002 3.946 31.462 10.285 45.447 19.029 13.817 8.627 26.199 19.657 35.793 32.852 5.1 7.028 9.061 14.673 13.085 22.335.442.848.893 1.684 1.345 2.531z" class="colorFFF svgShape"/><path fill="#ffa8d9" d="m619.634 290.901-9.211 5.071c1.836-9.463 3.69-19.025 3.382-28.66-.92-28.632-20.541-53.282-42.313-71.901-21.758-18.622-46.784-33.809-65.117-55.822-5.204-6.239-10.022-14.589-6.866-22.072a13.246 13.246 0 0 1 2.762-4.081c11.798 5.123 23.303 10.89 34.34 17.505 17.165 10.285 33.223 22.634 46.753 37.442 11.136 12.198 20.469 26.081 27.29 41.138 6.733 14.838 11.005 30.883 11.77 47.192.396 8.448-.323 16.792-1.521 25.15-.429 3.008-.889 6.008-1.269 9.038z" class="colorFFA8D9 svgShape"/><path fill="#ffbde2" d="m633.224 283.409-12.477 6.877-1.113.615c.38-3.029.84-6.03 1.269-9.039 1.198-8.358 1.918-16.703 1.521-25.15-.765-16.309-5.037-32.355-11.77-47.192-6.821-15.057-16.154-28.939-27.29-41.138-13.529-14.807-29.588-27.156-46.753-37.442-11.037-6.615-22.542-12.381-34.34-17.505.256-.273.53-.535.815-.777 2.421-2.185 5.56-3.707 8.709-4.69 15.576-4.882 32.542.543 46.958 8.216 45.044 23.971 76.701 71.455 81.531 122.259 1.451 15.336.442 31.51-7.06 44.966z" class="colorFFBDE2 svgShape"/><path fill="#ffffff" d="m620.747 290.286-1.113.615c.38-3.029.84-6.03 1.269-9.039 1.198-8.358 1.918-16.703 1.521-25.15-.765-16.309-5.037-32.355-11.77-47.192-6.821-15.057-16.154-28.939-27.29-41.138-13.529-14.807-29.588-27.156-46.753-37.442-11.037-6.615-22.542-12.381-34.34-17.505.256-.273.53-.535.815-.777 13.936 6.081 27.475 13.071 40.285 21.264 16.524 10.561 31.9 23.195 44.625 38.17 10.675 12.557 19.513 26.738 25.747 42.008 6.166 15.076 9.764 31.264 9.834 47.578.029 8.684-1.226 17.201-2.441 25.77-.137.945-.261 1.887-.389 2.838z" class="colorFFF svgShape"/><path fill="#ffbde2" d="M1022.636 674.576c1.043-3.802 5.805-5.582 9.59-4.509 3.785 1.072 6.643 4.208 8.804 7.512 3.496 5.344 5.538 10.951 7.413 16.903a261.964 261.964 0 0 1 2.734-17.538 268.919 268.919 0 0 1 2.441-11.473c-8.535-2.403-16.326-7.407-22.04-14.19-2.165-2.571-4.132-5.882-3.235-9.121 1.048-3.785 5.811-5.564 9.592-4.504 3.781 1.061 6.631 4.176 8.786 7.459 3.617 5.513 5.667 11.312 7.591 17.484 2.898-11.703 6.621-23.209 11.314-34.306-7.895-3.743-14.661-9.843-19.16-17.336-1.731-2.882-3.148-6.463-1.749-9.519 1.636-3.57 6.62-4.572 10.185-2.925 3.565 1.646 5.886 5.173 7.492 8.757 2.603 5.807 3.723 11.644 4.626 17.796 5.132-11.618 11.519-23.199 20.589-32.145.188-.186.386-.364.576-.549-7.393-4.835-13.31-11.91-16.731-20.057-1.301-3.099-2.193-6.847-.372-9.671 2.129-3.3 7.205-3.58 10.499-1.441 3.293 2.139 5.086 5.961 6.165 9.737 1.9 6.653 2.06 13.093 2.037 19.911 10.758-10.048 23.415-18.155 33.81-28.557-7.572-4.84-13.636-12.013-17.115-20.301-1.302-3.099-2.193-6.846-.371-9.671 2.128-3.3 7.205-3.58 10.498-1.441 3.293 2.139 5.087 5.961 6.165 9.737 1.951 6.833 2.067 13.439 2.034 20.462 2.552-2.646 4.953-5.443 7.134-8.464 4.417-6.118 7.479-13.123 9.332-20.502-8.8-2.664-16.738-8.114-22.361-15.389-2.055-2.66-3.882-6.051-2.849-9.25 1.207-3.737 6.04-5.315 9.773-4.097 3.733 1.219 6.45 4.45 8.465 7.821 3.694 6.182 5.508 12.624 7.307 19.522 2.741-11.97 2.343-24.828-.661-36.446-7.63-3.372-14.299-8.91-18.972-15.824-1.882-2.785-3.49-6.286-2.255-9.412 1.442-3.653 6.366-4.92 10.014-3.467 3.648 1.454 6.154 4.852 7.95 8.344 2.865 5.571 4.296 11.249 5.514 17.239.153.168.279.378.355.646 2.778 9.83 3.516 20.191 2.479 30.342a92.34 92.34 0 0 1-.936 6.708c4.33-6.863 10.548-12.534 17.811-16.16 3.008-1.502 6.689-2.636 9.627-1.003 3.433 1.908 4.044 6.955 2.125 10.381-1.919 3.427-5.616 5.466-9.314 6.789-6.897 2.467-13.681 2.974-20.936 3.407-1.035 4.636-2.5 9.171-4.59 13.429-3.164 6.45-7.435 12.022-12.296 17.092 7.13-4.385 15.507-6.735 23.88-6.643 3.361.037 7.154.707 9.023 3.501 2.183 3.264.423 8.034-2.848 10.207s-7.491 2.3-11.385 1.789c-7.462-.979-13.873-3.745-20.73-6.765-8.259 8.129-17.934 15.03-26.752 22.357-2.776 2.306-5.466 4.673-8.015 7.174 7.492-5.147 16.582-7.939 25.672-7.851 3.361.033 7.155.698 9.028 3.489 2.187 3.262.433 8.034-2.835 10.211-3.268 2.177-7.488 2.31-11.382 1.804-7.633-.99-14.17-3.853-21.209-6.943-2.688 2.695-5.201 5.556-7.454 8.689-4.122 5.731-7.587 11.922-10.646 18.277a176.168 176.168 0 0 0-2.355 5.111c6.319-5.293 14.121-8.812 22.282-9.992 3.327-.481 7.178-.403 9.454 2.07 2.66 2.889 1.656 7.874-1.242 10.524-2.897 2.651-7.048 3.427-10.974 3.521-7.254.176-13.799-1.44-20.748-3.284-4.584 10.841-8.155 22.135-10.965 33.565 5.036-6.975 12.116-12.465 20.147-15.555 3.137-1.207 6.91-1.985 9.678-.078 3.234 2.227 3.36 7.31 1.122 10.537-2.237 3.227-6.112 4.904-9.919 5.868-7.225 1.828-14.14 1.646-21.546 1.377-.36 1.518-.712 3.038-1.047 4.559-1.838 8.351-3.305 16.817-4.297 25.335 5.008-6.718 11.931-12.003 19.755-15.013 3.137-1.207 6.91-1.984 9.678-.079 3.234 2.227 3.36 7.311 1.122 10.538-2.238 3.227-6.112 4.903-9.92 5.867-7.026 1.778-13.759 1.656-20.935 1.4-1.015 9.724-1.396 19.51-.974 29.265.087 2.032-3.07 2.028-3.158 0-.425-9.851-.02-19.733 1.011-29.55-8.572-2.423-16.404-7.474-22.149-14.321-2.168-2.586-4.142-5.917-3.251-9.171z" class="colorFFBDE2 svgShape"/><path fill="#8c88db" d="m992.473 782.281 10.861 64.39c5.07-5.601 10.749-10.726 16.19-15.889 5.353-5.078 10.628-10.324 15.041-16.286 4.488-6.06 7.497-12.699 9.833-19.832 2.26-6.901 4.19-13.981 7.851-20.326 2.87-4.993 6.817-9.263 11.19-12.982 9.056-7.727 19.757-13.189 29.013-20.643 4.67-3.742 8.911-8.009 12.111-13.09 3.866-6.123 6.144-13.076 8.189-19.971 2.044-6.882 3.871-13.866 6.794-20.446 2.49-5.607 5.81-10.822 9.785-15.49 7.952-9.377 18.288-16.534 29.441-21.576 27.297-12.363 58.053-11.018 87.185-8.138 1.72.174 3.441.347 5.175.535-1.265-17.058-28.057-25.105-43.79-24.777-10.762.227-20.623 5.987-31.215 7.85-53.673 9.479-92.181-1.486-104.429 65.03-1.365 7.446-2.247 15.274-6.338 21.642-19.2 25.576-81.392 23.78-72.887 69.999z" class="color8C88DB svgShape"/><path fill="#736fc7" d="M1060.912 903.85c46.536 6.714 82.65-39.995 44.51-82.632-24.708-20.916-2.765-41.736 18.605-52.088 10.602-5.151 24.16-8.574 28.036-19.711 5.641-24.667-29.794-47.427 16.138-69.013 25.915-12.194 81.667 1.23 82.968-35.991.004-.174.01-.36.001-.535-27.697-2.91-56.565-5.228-83.27 4.052-11.724 4.075-22.858 10.256-31.953 18.768-4.444 4.153-8.37 8.879-11.542 14.083-3.526 5.796-5.861 12.127-7.837 18.602-2.081 6.852-3.827 13.831-6.568 20.468-2.407 5.843-5.674 11.197-10.029 15.8-7.872 8.315-18 13.941-27.343 20.396-4.745 3.293-9.394 6.837-13.353 11.079-4.516 4.868-7.641 10.544-9.925 16.76-2.49 6.797-4.179 13.875-7.197 20.472-2.903 6.381-7.073 12.073-11.743 17.273-8.408 9.397-18.427 17.255-26.787 26.697-.001.001 4.94 47.967 57.289 55.52z" class="color736FC7 svgShape"/><path fill="#ffffff" d="m1003.334 846.671.287 1.66c8.359-9.442 18.379-17.299 26.787-26.697 4.67-5.2 8.84-10.892 11.743-17.273 3.018-6.597 4.707-13.675 7.197-20.472 2.284-6.216 5.41-11.893 9.925-16.76 3.958-4.242 8.608-7.786 13.353-11.079 9.343-6.455 19.472-12.081 27.343-20.396 4.355-4.603 7.622-9.958 10.029-15.8 2.741-6.638 4.487-13.617 6.568-20.468 1.976-6.475 4.312-12.806 7.837-18.602 3.172-5.204 7.098-9.93 11.542-14.083 9.095-8.512 20.229-14.693 31.953-18.768 26.705-9.28 55.572-6.962 83.27-4.052.005-.454-.003-.896-.039-1.341-1.734-.188-3.455-.361-5.175-.535-29.132-2.88-59.889-4.225-87.185 8.138-11.153 5.042-21.489 12.199-29.441 21.576-3.974 4.668-7.295 9.884-9.785 15.49-2.923 6.58-4.749 13.564-6.794 20.446-2.045 6.895-4.323 13.848-8.189 19.971-3.2 5.081-7.441 9.348-12.111 13.09-9.256 7.453-19.957 12.915-29.013 20.643-4.373 3.719-8.32 7.989-11.19 12.982-3.661 6.345-5.591 13.426-7.851 20.326-2.336 7.133-5.345 13.771-9.833 19.832-4.412 5.962-9.688 11.208-15.041 16.286-5.438 5.159-11.116 10.285-16.187 15.886z" class="colorFFF svgShape"/><path fill="#ffffff" d="M617.912 180.852v675.379c0 24.341 19.732 44.073 44.073 44.073h345.757c24.341 0 44.073-19.732 44.073-44.073V180.852H617.912z" class="colorFFF svgShape"/><path fill="#afaae8" d="M1016.887 141.605H656.556c-24.47 0-44.293 19.825-44.293 44.289v675.819c0 13.345 5.922 25.335 15.282 33.46.314.263.628.532.941.798 7.641 6.286 17.431 10.031 28.07 10.031h360.331c10.637 0 20.43-3.745 28.07-10.031 9.914-8.125 16.246-20.457 16.246-34.258V185.894c0-24.464-19.849-44.289-44.316-44.289zm34.927 702.846c0 25.686-22.019 46.507-49.183 46.507H670.835c-27.163 0-49.185-20.82-49.185-46.507V229.737c0-15.975 13.696-28.922 30.591-28.922h368.985c16.894 0 30.588 12.946 30.588 28.922v614.714z" class="colorAFAAE8 svgShape"/><path fill="#ffffff" d="M683.679 172.632c0 7.864-6.386 14.249-14.252 14.249s-14.252-6.386-14.252-14.249c0-7.87 6.386-14.255 14.252-14.255s14.252 6.386 14.252 14.255z" class="colorFFF svgShape"/><path fill="#afaae8" d="M679.069 172.631c0 5.322-4.319 9.642-9.642 9.642-5.322 0-9.644-4.32-9.644-9.642 0-5.323 4.322-9.644 9.644-9.644 5.323 0 9.642 4.321 9.642 9.644z" class="colorAFAAE8 svgShape"/><path fill="#ffffff" d="M712.855 172.631c0 5.322-4.32 9.642-9.643 9.642s-9.642-4.32-9.642-9.642c0-5.323 4.319-9.644 9.642-9.644 5.323 0 9.643 4.321 9.643 9.644z" class="colorFFF svgShape"/><path fill="#dbd9ff" d="M709.875 240.291h-58.013a2.856 2.856 0 0 1-2.856-2.856v-1.156a2.856 2.856 0 0 1 2.856-2.856h58.013a2.856 2.856 0 0 1 2.856 2.856v1.156a2.855 2.855 0 0 1-2.856 2.856zM709.875 258.969h-58.013a2.856 2.856 0 0 1-2.856-2.856v-1.156a2.856 2.856 0 0 1 2.856-2.856h58.013a2.856 2.856 0 0 1 2.856 2.856v1.156a2.855 2.855 0 0 1-2.856 2.856zM709.875 277.647h-58.013a2.856 2.856 0 0 1-2.856-2.856v-1.156a2.856 2.856 0 0 1 2.856-2.856h58.013a2.856 2.856 0 0 1 2.856 2.856v1.155a2.855 2.855 0 0 1-2.856 2.857zM874.122 816.193H675.994c-2.202 0-3.987-.891-3.987-1.989 0-1.099 1.785-1.99 3.987-1.99h198.129c2.202 0 3.987.891 3.987 1.99-.001 1.098-1.786 1.989-3.988 1.989zM975.639 855.672H784.106c-2.202 0-3.987-.891-3.987-1.989 0-1.099 1.785-1.99 3.987-1.99h191.533c2.202 0 3.987.891 3.987 1.99 0 1.098-1.785 1.989-3.987 1.989zM977.173 816.192h-80.355c-2.202 0-3.988-.891-3.988-1.989 0-1.099 1.786-1.989 3.988-1.989h80.355c2.202 0 3.987.891 3.987 1.989 0 1.099-1.785 1.989-3.987 1.989zM707.89 834.86h-31.896c-2.202 0-3.987-.891-3.987-1.989 0-1.099 1.785-1.989 3.987-1.989h31.896c2.203 0 3.987.891 3.987 1.989s-1.784 1.989-3.987 1.989zM750.982 855.67h-74.988c-2.202 0-3.987-.891-3.987-1.989 0-1.099 1.785-1.989 3.987-1.989h74.988c2.202 0 3.987.891 3.987 1.989-.001 1.099-1.786 1.989-3.987 1.989zM977.173 834.859h-38.338c-2.202 0-3.987-.891-3.987-1.989 0-1.099 1.785-1.989 3.987-1.989h38.338c2.202 0 3.987.89 3.987 1.989 0 1.099-1.785 1.989-3.987 1.989zM912.076 834.859H735.187c-2.202 0-3.987-.891-3.987-1.989 0-1.099 1.785-1.989 3.987-1.989h176.889c2.202 0 3.987.891 3.987 1.989 0 1.099-1.785 1.989-3.987 1.989z" class="colorDBD9FF svgShape"/><circle cx="830.596" cy="435.839" r="93.983" fill="#b4b0ff" transform="rotate(-45.001 830.595 435.85)" class="colorB4B0FF svgShape"/><circle cx="829.196" cy="409.254" r="36.485" fill="#ffffff" transform="rotate(-67.952 829.14 409.244)" class="colorFFF svgShape"/><path fill="#ffffff" d="M862.66 446.034c-2.937-2.294-7.041-2.214-9.928.141a36.367 36.367 0 0 1-23.064 8.21c-8.471 0-16.264-2.884-22.445-7.735-2.943-2.309-7.115-2.262-9.954.173-7.36 6.311-11.843 15.413-11.843 27.244v1.067c0 6.118 4.96 11.078 11.079 11.078h68.18c6.118 0 11.078-4.96 11.078-11.078v-1.067c.001-12.335-5.006-21.707-13.103-28.033z" class="colorFFF svgShape"/><path fill="#b4b0ff" d="M919.324 603.25H692.339c-5.961 0-10.794-4.833-10.794-10.794v-4.368c0-5.961 4.833-10.794 10.794-10.794h226.985c5.962 0 10.794 4.833 10.794 10.794v4.368c0 5.962-4.832 10.794-10.794 10.794zM919.324 662.992H693.021c-5.962 0-10.794-4.833-10.794-10.794v-4.368c0-5.961 4.833-10.794 10.794-10.794h226.303c5.962 0 10.794 4.833 10.794 10.794v4.368c0 5.961-4.833 10.794-10.794 10.794zM981.125 603.25h-27.029c-5.961 0-10.794-4.833-10.794-10.794v-4.368c0-5.961 4.833-10.794 10.794-10.794h27.029c5.962 0 10.794 4.833 10.794 10.794v4.368c.001 5.962-4.832 10.794-10.794 10.794zM981.125 662.992h-27.029c-5.961 0-10.794-4.833-10.794-10.794v-4.368c0-5.961 4.833-10.794 10.794-10.794h27.029c5.962 0 10.794 4.833 10.794 10.794v4.368c.001 5.961-4.832 10.794-10.794 10.794z" class="colorB4B0FF svgShape"/><path fill="#ffffff" d="m705.477 641.902.756 5.307a.421.421 0 0 0 .563.336l5.031-1.851c.451-.166.784.431.406.728l-4.218 3.309a.422.422 0 0 0-.01.656l4.118 3.432c.369.308.019.895-.427.716l-4.974-1.999a.422.422 0 0 0-.573.32l-.913 5.283c-.082.474-.766.464-.833-.012l-.756-5.307a.421.421 0 0 0-.563-.336l-5.031 1.851c-.451.166-.784-.431-.406-.728l4.218-3.308a.422.422 0 0 0 .01-.656l-4.118-3.432c-.369-.308-.019-.895.427-.716l4.974 1.999c.249.1.527-.055.573-.32l.913-5.283c.082-.475.765-.465.833.011zM729.182 641.902l.756 5.307a.421.421 0 0 0 .563.336l5.031-1.851c.451-.166.784.431.406.728l-4.218 3.309a.422.422 0 0 0-.01.656l4.118 3.432c.369.308.019.895-.427.716l-4.974-1.999a.422.422 0 0 0-.573.32l-.913 5.283c-.082.474-.766.464-.833-.012l-.756-5.307a.421.421 0 0 0-.563-.336l-5.031 1.851c-.451.166-.784-.431-.406-.728l4.218-3.308a.422.422 0 0 0 .01-.656l-4.118-3.432c-.369-.308-.019-.895.427-.716l4.974 1.999c.249.1.527-.055.573-.32l.913-5.283c.081-.475.765-.465.833.011zM752.886 641.902l.756 5.307a.421.421 0 0 0 .563.336l5.031-1.851c.451-.166.784.431.406.728l-4.218 3.309a.422.422 0 0 0-.01.656l4.118 3.432c.369.308.019.895-.427.716l-4.974-1.999a.422.422 0 0 0-.573.32l-.913 5.283c-.082.474-.766.464-.833-.012l-.756-5.307a.421.421 0 0 0-.563-.336l-5.031 1.851c-.451.166-.784-.431-.406-.728l4.218-3.308a.422.422 0 0 0 .01-.656l-4.118-3.432c-.369-.308-.019-.895.427-.716l4.974 1.999c.249.1.527-.055.573-.32l.913-5.283c.082-.475.766-.465.833.011zM776.591 641.902l.756 5.307a.421.421 0 0 0 .563.336l5.031-1.851c.451-.166.784.431.406.728l-4.218 3.309a.422.422 0 0 0-.01.656l4.118 3.432c.369.308.019.895-.427.716l-4.974-1.999a.422.422 0 0 0-.573.32l-.913 5.283c-.082.474-.766.464-.833-.012l-.756-5.307a.421.421 0 0 0-.563-.336l-5.031 1.851c-.451.166-.784-.431-.406-.728l4.218-3.308a.422.422 0 0 0 .01-.656l-4.118-3.432c-.369-.308-.019-.895.427-.716l4.974 1.999c.249.1.527-.055.573-.32l.913-5.283c.081-.475.765-.465.833.011zM800.295 641.902l.756 5.307a.421.421 0 0 0 .563.336l5.031-1.851c.451-.166.784.431.406.728l-4.218 3.309a.422.422 0 0 0-.01.656l4.118 3.432c.369.308.019.895-.427.716l-4.974-1.999a.422.422 0 0 0-.573.32l-.913 5.283c-.082.474-.766.464-.833-.012l-.756-5.307a.421.421 0 0 0-.563-.336l-5.031 1.851c-.451.166-.784-.431-.406-.728l4.218-3.308a.422.422 0 0 0 .01-.656l-4.118-3.432c-.369-.308-.019-.895.427-.716l4.974 1.999c.249.1.527-.055.573-.32l.913-5.283c.082-.475.766-.465.833.011z" class="colorFFF svgShape"/><circle cx="703.07" cy="590.272" r="3.044" fill="#ffffff" class="colorFFF svgShape"/><circle cx="712.898" cy="590.272" r="3.044" fill="#ffffff" class="colorFFF svgShape"/><circle cx="722.727" cy="590.272" r="3.044" fill="#ffffff" class="colorFFF svgShape"/><circle cx="732.556" cy="590.272" r="3.044" fill="#ffffff" class="colorFFF svgShape"/><path fill="#ffffff" d="M739.34 590.272a3.044 3.044 0 1 1 6.088 0 3.044 3.044 0 0 1-6.088 0z" class="colorFFF svgShape"/><circle cx="752.213" cy="590.272" r="3.044" fill="#ffffff" class="colorFFF svgShape"/><circle cx="762.041" cy="590.272" r="3.044" fill="#ffffff" class="colorFFF svgShape"/><circle cx="771.87" cy="590.272" r="3.044" fill="#ffffff" class="colorFFF svgShape"/><path fill="#ff8fcf" d="M894.115 730.587H774.058a8.972 8.972 0 0 1-8.972-8.973v-19.837a8.972 8.972 0 0 1 8.972-8.972h120.057a8.973 8.973 0 0 1 8.973 8.972v19.837a8.974 8.974 0 0 1-8.973 8.973z" class="colorFF8FCF svgShape"/><path fill="#dbd9ff" d="M870.209 750.629h-72.767a1.7 1.7 0 0 1-1.701-1.701v-.389a1.7 1.7 0 0 1 1.701-1.701h72.767c.939 0 1.701.762 1.701 1.701v.389c0 .939-.762 1.701-1.701 1.701zM896.175 764.916h-124.7a1.7 1.7 0 0 1-1.701-1.701v-.389a1.7 1.7 0 0 1 1.701-1.701h124.7a1.7 1.7 0 0 1 1.701 1.701v.389a1.7 1.7 0 0 1-1.701 1.701z" class="colorDBD9FF svgShape"/><path fill="#ffffff" d="m776.054 712.289 5.677-.355c.123.922.374 1.625.751 2.107.614.782 1.492 1.173 2.635 1.173.852 0 1.508-.2 1.969-.599.461-.399.692-.863.692-1.39 0-.5-.22-.948-.659-1.343-.439-.396-1.458-.769-3.056-1.12-2.617-.588-4.483-1.37-5.599-2.345-1.124-.975-1.686-2.217-1.686-3.728 0-.992.287-1.93.863-2.813s1.44-1.576 2.595-2.081c1.155-.505 2.738-.758 4.749-.758 2.467 0 4.349.459 5.644 1.377 1.295.918 2.066 2.378 2.312 4.38l-5.625.329c-.15-.869-.463-1.502-.942-1.896-.479-.395-1.14-.593-1.983-.593-.693 0-1.216.147-1.567.441-.351.294-.527.652-.527 1.074 0 .307.145.584.434.83.281.255.948.492 2.002.711 2.608.562 4.476 1.131 5.605 1.706 1.128.575 1.949 1.289 2.463 2.14.513.852.771 1.805.771 2.859 0 1.238-.343 2.38-1.028 3.425s-1.642 1.838-2.872 2.378c-1.229.54-2.779.81-4.65.81-3.284 0-5.559-.633-6.824-1.897-1.261-1.265-1.977-2.872-2.144-4.822zM796.419 699.367h5.361v3.649h-5.361v-3.649zm0 5.321h5.361v13.989h-5.361v-13.989zM814.94 704.688h5.019V717.9l.013.619c0 .878-.187 1.714-.56 2.509-.374.795-.869 1.438-1.488 1.93s-1.405.848-2.358 1.067c-.953.219-2.044.33-3.273.33-2.811 0-4.74-.422-5.789-1.265-1.05-.843-1.575-1.971-1.575-3.385 0-.176.009-.413.026-.711l5.204.593c.131.483.334.817.606 1.001.395.272.891.408 1.488.408.773 0 1.35-.206 1.732-.619.382-.413.573-1.133.573-2.16v-2.121c-.527.623-1.053 1.076-1.581 1.357a5.596 5.596 0 0 1-2.674.659c-1.87 0-3.381-.817-4.531-2.451-.817-1.159-1.225-2.691-1.225-4.597 0-2.178.527-3.838 1.581-4.98 1.054-1.141 2.432-1.712 4.136-1.712 1.089 0 1.987.185 2.694.554.707.369 1.368.979 1.983 1.831v-2.069zm-5.045 6.784c0 1.01.215 1.759.645 2.246.43.487.997.731 1.699.731.667 0 1.227-.253 1.68-.757s.678-1.267.678-2.286c0-1.018-.237-1.798-.711-2.338s-1.054-.81-1.739-.81-1.231.248-1.64.744c-.408.497-.612 1.32-.612 2.47zM823.199 704.688h4.992v2.279c.747-.931 1.502-1.596 2.266-1.995s1.695-.6 2.793-.6c1.484 0 2.645.442 3.484 1.324.838.883 1.258 2.246 1.258 4.09v8.892h-5.388v-7.693c0-.878-.162-1.5-.487-1.864-.325-.365-.782-.547-1.37-.547-.651 0-1.177.246-1.581.738-.404.492-.606 1.374-.606 2.648v6.718h-5.361v-13.99zM863.112 699.367h5.955v11.505a9.685 9.685 0 0 1-.534 3.232 6.983 6.983 0 0 1-1.673 2.659c-.759.759-1.557 1.292-2.391 1.599-1.159.43-2.551.645-4.176.645-.94 0-1.965-.066-3.076-.198s-2.039-.392-2.786-.783c-.746-.39-1.429-.945-2.048-1.665-.619-.719-1.043-1.461-1.271-2.224-.369-1.229-.553-2.317-.553-3.265v-11.505h5.954v11.779c0 1.053.292 1.876.876 2.468.584.593 1.394.889 2.43.889 1.028 0 1.833-.292 2.417-.876.584-.583.876-1.41.876-2.481v-11.779zM872.689 724v-19.311h5.019v2.068c.694-.869 1.331-1.458 1.91-1.765.782-.413 1.646-.62 2.595-.62 1.871 0 3.317.716 4.34 2.147 1.023 1.432 1.535 3.201 1.535 5.309 0 2.327-.558 4.103-1.673 5.328-1.115 1.225-2.525 1.838-4.228 1.838-.825 0-1.579-.141-2.259-.422a5.384 5.384 0 0 1-1.825-1.251V724h-5.414zm5.375-12.277c0 1.107.233 1.928.698 2.463a2.236 2.236 0 0 0 1.765.803c.624 0 1.146-.257 1.567-.771.422-.514.633-1.385.633-2.615 0-1.133-.22-1.965-.659-2.496-.439-.531-.974-.797-1.607-.797-.685 0-1.256.268-1.712.803-.457.537-.685 1.407-.685 2.61z" class="colorFFF svgShape"/><path fill="#2a278f" d="M683.192 738.34c-4.814-8.676-12.032-15.354-19.022-21.871-7.228-6.743-14.497-13.643-19.41-22.658-5.283-9.687-7.679-20.618-9.567-31.532-.112-1.984-.232-4.08-.376-6.306-1.987-11.414-4.987-21.24-13.56-28.219-8.179-6.657-22.399-8.944-28.863-2.009-3.173-.192-5.841.373-8.071 1.457-2.519.836-4.793 2.371-6.638 4.408a18.008 18.008 0 0 0-3.988 7.255c-.864 3.117-1.003 6.506-.55 9.742a29.929 29.929 0 0 0 1.268 5.347c.232.691.497 1.388.795 2.077.966 4.493 2.757 6.863 4.769 9.082 1.633 1.81 3.415 3.517 5.015 6.192 2.872 4.789 6.282 9.806 7.182 15.235.224 1.339.291 2.708.161 4.104-.015.136-.031.267-.05.402-.017.118-.03.231-.051.349-.346 2.334-1.108 4.597-2.15 6.786a.11.11 0 0 0-.126.048c-5.05 8.299-13.701 12.572-20.273 19.152-3.323 3.331-6.045 7.282-7.372 12.057-1.384 4.982-1.321 10.435.149 15.441.859 2.923 2.23 5.586 3.956 8.007 1.271 1.779 2.63 3.465 3.904 5.236.649.9 1.275 1.819 1.856 2.784.21.349.778.03.593-.349-.241-.494-.5-.968-.784-1.435a7.286 7.286 0 0 0-.22-.362 34.721 34.721 0 0 0 1.016 1.108 33.361 33.361 0 0 0 3.252 2.988c.589.428 1.198.8 1.821 1.122 5.468 2.838 12.115 1.952 18.272 2.257 8.201.017 15.153 2.716 21.335 6.948a55.533 55.533 0 0 1 4.745 3.638c5.635 4.795 10.67 10.739 15.547 16.771 2.439 3.016 4.838 6.053 7.251 8.978.069.078.134.152.206.23a23.105 23.105 0 0 0 3.552 3.257 19.166 19.166 0 0 0 3.988 2.272c9.671 4.035 20.727-1.309 26.773-13.252.039.184.295.301.42.119 2.586-3.727 6.102-10.845 7.332-15.316 1.26-4.581 2.591-9.076 2.659-13.873.145-9.626-2.127-19.351-6.746-27.667zm-108.743-91.648c-.027 2.547.082 4.706.305 6.568a26.367 26.367 0 0 1-.825-3.521c-.491-3.076-.539-6.259.084-9.294.897-4.375 3.285-8.167 6.613-10.624-4.41 4.32-6.11 11.244-6.177 16.871zm-5.976 107.535-.601-.788c-1.601-2.148-3.02-4.386-3.997-6.945-1.856-4.864-2.238-10.33-1.141-15.4 1.064-4.914 3.62-9.067 6.902-12.519 3.186-3.349 6.892-6.036 10.417-8.932 3.115-2.556 6.143-5.283 8.521-8.641-4.623 7.76-12.299 14.558-16.945 20.45-9.304 11.799-8.575 23.727-3.156 32.775zm120.459 7.46c.631 9.638-3.665 21.701-7.815 30.146a83.675 83.675 0 0 1-.823 1.64c.427-.953.826-1.944 1.188-2.971 9.364-31.43-6.871-55.498-26.525-78.516-17.23-17.853-18.405-26.03-19.527-45.539 1.33 8.019 3.328 15.936 6.608 23.301a60.627 60.627 0 0 0 7.995 13.198c3.012 3.78 6.377 7.203 9.815 10.512 6.971 6.702 14.399 13.068 19.992 21.256 5.38 7.879 8.457 17.255 9.092 26.973z" class="color2A278F svgShape"/><path fill="#f7c1ce" d="m596.176 700.566-2.504 7.283-9.493 51.643s1.303 3.751-1.258 8.758c-5.803 11.382-25.048 23.704-34.13 21.969-28.225-5.391-53.162-60.689-53.162-60.689-6.773-4.894-13.317-22.876-9.447-33.345 8.251-22.251 8.365 9.958 18.95 13.713 2.332.854 5.757-10.191 8.764-4.78 1.964 3.534-3.586 16.445-3.586 16.445s36.954 34.896 37.92 34.954c.284 0 6.179-6.046 9.481-12.59 6.829-13.657 19.233-35.851 32.834-41.825a16.942 16.942 0 0 1 5.631-1.536z" class="colorF7C1CE svgShape"/><path fill="#ffb3de" d="m593.672 707.849 9.781 43.367s-16.806 19.513-19.366 24.522c-13.246-9.472-25.45-18.882-32.745-28.001 10.378-12.669 33.413-48.758 47.013-54.731l-4.683 14.843z" class="colorFFB3DE svgShape"/><path fill="#1f1c80" d="m480.903 674.88 7.719-3.307 24.61 57.444-7.719 3.307z" class="color1F1C80 svgShape"/><path fill="#f7c1ce" d="M649.894 722.909c-14.858 28.219-8.301 42.97-12.062 66.444-2.198 18.244-11.965 46.321-24.51 66.139a73980.419 73980.419 0 0 0-63.058-23.228l-14.334 11.594c7.242-4.435 66.502-46.161 60.248-71.131-11.179-47.083 2.177-79.721 2.177-79.721-.893-2.84-4.134-13.306-5.072-16.332l15.677-5.915c2.655 4.553 8.526 14.543 11.231 19.166 2.169 4.655 27.413 31.567 29.703 32.984z" class="colorF7C1CE svgShape"/><path fill="#ff8fcf" d="M523.797 833.886c4.718 4.303 8.789 7.354 12.628 9.567.031.02.06.03.081.04 12.264 7.051 22.144 5.567 42.905 9.294 4.607.849 9.244 1.475 13.871 1.91 6.677.686 13.244 2.273 19.891 2.141.859-1.444 1.758-3.566 2.587-5.344a30.84 30.84 0 0 1 .889-1.758c.546-.949 1.06-1.909 1.556-2.839a401.7 401.7 0 0 0 2.819-5.233c.04-.061.07-.121.091-.171 28.61-53.725 38.561-94.468 27.186-126.765-5.375-15.244-26.913-24.013-28.105-24.801-14.093 14.245-22.952 18.336-21.842 3.081l-.01.01c-.617.374-25.357 15.78-25.437 75.768v1.484c.11 19.872-7.133 30.186-16.962 38.38-9.711 8.092-21.965 14.113-32.148 25.236z" class="colorFF8FCF svgShape"/><path fill="#f073ba" d="M555.943 808.651c5.283 1.535 11.061 3.828 16.446 6.132.869.374 1.728.747 2.577 1.111 10.92 4.738 23.872-2.9 28.488-10.022 4.617-7.112 9.608-2.364 18.568-6.85 5.849-2.919 13.184-24.609 17.579-39.339 2.344-7.86 3.85-13.729 3.85-13.729l-1.839-1.414-31.681-24.306c-6.273 1.434-12.618 8.516-18.204 16.8-7.759 11.486-14.073 25.286-16.76 29.57-.395.627-1.102 1.364-2.061 2.182v1.484c.11 19.873-7.134 30.187-16.963 38.381z" class="colorF073BA svgShape"/><path fill="#f7b7c6" d="M613.622 678.722c-5.479 5.506-12.296 8.533-16.603 10.004l-3.736-12.051 15.677-5.915 4.662 7.962z" class="colorF7B7C6 svgShape"/><path fill="#f7c1ce" d="M613.053 662.011s5.552-6.364 2.159-11.18c-3.869-5.492-8.079 2.548-8.079 2.548-9.193 1.373-15.859-5.546-24.607-12.611-2.025-1.633-3.99 1.93-3.943 4.532.197 10.808.041 30.817 7.6 36.007 4.19 2.879 9.825 2.912 14.222 1.244 7.4-2.808 13.343-7.13 12.648-20.54z" class="colorF7C1CE svgShape"/><path fill="#2a278f" d="M609.883 652.952c-2.858-6.304-11.067-13.827-19.67-16.29-4.063-1.162-8.216-1.194-11.932.566-.006.062-.017.126-.023.188-.354 2.812-.252 6.398 1.321 9.817.133 3.978 2.134 7.791 5.43 10.211 1.581 1.161 3.381 1.904 5.272 2.346.686.157 1.381.276 2.084.364 1.397.168 2.813.219 4.223.171 1.35-.042 2.71-.217 4.061-.115 1.561.11 2.825.759 3.897 1.881.869.916 1.497 1.964 2.116 3.046.64 2.984.044 5.782.044 5.782 3.078-2.319 6.167-6.553 4.014-15.599a12.64 12.64 0 0 0-.837-2.368zm-6.945 7.275c-1.147-.565-2.422-.676-3.685-.669-1.354.008-2.706.059-4.059.036-1.641-.03-3.312-.178-4.918-.56a14.685 14.685 0 0 1-3.058-1.071 13.22 13.22 0 0 1-5.531-5.141 13.19 13.19 0 0 1-1.652-4.673c1.741 3.182 4.865 6.14 10.235 8.092 2.367.859 5.177 1.522 8.496 1.924 4.604.555 6.683 3.119 7.576 5.806-.806-1.53-1.85-2.976-3.404-3.744z" class="color2A278F svgShape"/><path fill="#f7cfd8" d="M488.116 691.652c6.907-6.144 3.534 13.392 15.974 19.718 1.235.628 4.245-8.121 6.601-6.392 4.056 2.978-2.306 12.353-.198 17.731 1.082 2.761 67.896 51.949 67.896 51.949l17.787-25.227s22.224-24.083 31.493-21.722c15.869 4.04 15.489 26.147-4.601 49.042-18.026 20.473-32.303 31.143-39.179 31.601-26.684 1.779-73.97-58.514-83.316-68.955-.981-1.108-26.97-34.835-12.457-47.745z" class="colorF7CFD8 svgShape"/><path fill="#ffb3de" d="M617.779 789.865c-14.283-5.117-26.424-13.658-35.254-26.651 0 0 29.301-70.165 54.848-45.322 17.635 17.148.496 49.078-19.594 71.973z" class="colorFFB3DE svgShape"/><path fill="#f7c1ce" d="M225.433 874.477c.333 2.021.525 20.346.525 20.346 11.789-.586 24.276.223 36.833.01 3.657-.06 7.324-.212 10.972-.505l1.051-.091c54.119-4.808 111.48-5.304 172.013-5.284 9.699 0 19.478.02 29.348.04 24.356.03 49.219.061 74.575-.162l-43.773-57.917c-29.155 2.94-57.937 6.213-86.284 9.84-50.654 6.476-99.954 14.103-147.617 23.084-.435.081-.869.162-1.303.253-15.478 2.992-31.227 7.195-46.34 10.386z" class="colorF7C1CE svgShape"/><path fill="#1f1c80" d="M271.772 864.093a3.14 3.14 0 0 0 0 .455l1.323 20.902.505 8.001c.021.303.071.607.162.879a3.868 3.868 0 0 0 4.303 2.698c135.262-20.68 245.045 29.257 289.495-9.689l-60.585-56.422c-29.195 2.95-58.22 5.869-86.86 9.052-49.856 5.526-98.58 11.86-145.182 20.518a3.877 3.877 0 0 0-3.161 3.606z" class="color1F1C80 svgShape"/><path fill="#1a176b" d="m273.095 885.449.505 8.001c.021.303.071.607.162.879a3.868 3.868 0 0 0 4.303 2.698c135.262-20.68 245.045 29.257 289.495-9.689l-60.585-56.422c-29.195 2.95-58.22 5.869-86.86 9.052.191.262.384.515.576.788 7.819 10.799 19.457 28.873 32.802 33.641 10.577 3.778 20.589 10.264 22.68 14.598 1.121 2.303-.011 4.011-4.496 4.374-5.789.475-15.315-1.96-24.853-4.415-11.749-3-23.518-6.021-28.387-3.617-8.83 4.344-58.109 3.556-57.715-4.617 0 0-1.182 7.243-9.486 7.243-8.305 0-60.221 3.031-69.97-1.97-2.836-1.463-5.635-1.382-8.171-.544z" class="color1A176B svgShape"/><path fill="#2a278f" d="m229.347 894.985-16.544 7.534-27.224.221-.955-5.271 22.817-7.919-16.698-6.519c-4.496-1.756-8.381-4.767-9.62-9.431-3.266-12.303-6.901-36.706 1.178-38.798 8.304-2.151 11.781 21.51 21.969 27.216 9.868 5.524 22.683 12.041 22.683 12.041l2.394 20.926z" class="color2A278F svgShape"/><path fill="#f7c1ce" d="M614.125 853.798c-96.784 113.494-133.858-35.72-191.488-35.853-57.629-.133-95.971 51.148-97.922 50.757-4.647 2.02-25.272 2.824-22.683-8.252 10.973-15.331 75.109-85.679 94.524-88.011 53.716-6.451 93.11 37.675 130.282 54.711 37.173 17.036 56.18 13.842 87.287 26.648z" class="colorF7C1CE svgShape"/><path fill="#2a278f" d="M318.08 836.308c-2.522 2.488-2.279 5.714-.07 7.83 2.209 2.116 4.895 4.531 7.549 6.512 4.822 3.6 10.009 8.832 15.326 10.771 22.14-5.366 45.336-39.145 69.612-34.579 49.717 9.35 54.54 68.15 122.893 76.321 29.057 3.473 68.598-17.078 81.293-49.365-16.362-5.953-31.172-15.007-47.603-22.788-49.81-23.588-121.95-73.307-150.046-73.307-30.78 0-76.396 56.348-98.954 78.605z" class="color2A278F svgShape"/><path fill="#1f1c80" d="M325.513 850.723c5.01 3.421 9.955 8.816 15.38 10.695 22.102-5.36 45.358-39.141 69.601-34.576 49.65 9.349 54.669 68.155 122.849 76.319 28.983 3.471 68.801-17.106 81.277-49.318-15.563-6.587-32.094-14.298-47.379-22.87 3.817 11.233 11.374 15.997 15.077 28.098 7.234 23.637-33.125 40.44-49.229 35.642-16.105-4.798-27.526-10.585-39.943-14.497-24.083-7.587-43.589-42.429-59.064-50.756-21.341-11.483-15.166-10.98-19.179-28.167-4.584 8.9-2.148 15.216-14.736 20.177-12.588 4.961-37.517 16.075-48.76 27.122-8.104 7.963-16.805 3.814-25.894 2.131z" class="color1F1C80 svgShape"/><path fill="#2a278f" d="M324.714 868.702c-.568 5.937 1.216 4.421-.072 11.194-1.287 6.773-4.219 17.948-5.525 25.636-1.858.309-3.631.096-5.457.178-1.049-7.982-2.137-16.014-3.048-23.958-2.934 4.574-7.453 10.589-9.837 15.014-2.383 4.424-7.156 7.229-10.881 7.869-9.827 1.689-33.771 4.204-35.757-7.715-1.984-11.919 21.847-10.378 27.923-17.053 6.077-6.675 12.5-13.594 18.881-19.949 8.165 1.811 15.524 7.309 23.773 8.784z" class="color2A278F svgShape"/><path fill="#ff66bd" d="M1128.509 88.623c-6.537 53.322-4.165 112.53-27.09 151.401-12.84 21.768-46.934 36.954-63.153 45.544-19.435-11.196-49.956-25.836-63.172-48.864-21.911-38.168-20.715-96.195-27.077-148.08 24.789-4.302 50.976 25.849 90.249 0 32.678 23.951 51.866 1.682 90.243-.001z" class="colorFF66BD svgShape"/><path fill="#ffbde2" d="M1035.947 270.398c-18.073-10.078-40.567-22.62-50.373-39.705-15.19-26.466-18.521-65.936-21.742-104.108-.696-8.264-1.408-16.704-2.244-25.09 3.292.812 6.843 1.953 10.664 3.183 9.647 3.102 20.578 6.617 33.22 6.617 11.199-.001 21.876-2.76 32.44-8.408 10.058 6.012 19.98 8.848 30.725 8.848 10.172 0 19.414-2.527 29.197-5.202 5.48-1.498 11.065-3.026 17.041-4.155-.875 9.156-1.585 18.365-2.281 27.377-3.087 39.969-6.001 77.722-21.579 104.131-9.427 15.984-35.633 29.351-51.29 37.339l-1.201.612c-.846-.474-1.705-.954-2.577-1.439z" class="colorFFBDE2 svgShape"/><path fill="#ffaddb" d="M1100.423 105.826c-.497 5.873-.954 11.732-1.4 17.508-3.087 39.969-6.002 77.722-21.579 104.131-9.427 15.984-35.633 29.351-51.29 37.339l-.063.032a784.782 784.782 0 0 0 9.857 5.561l2.576 1.438 1.201-.612c15.656-7.987 41.863-21.355 51.29-37.339 15.578-26.41 18.492-64.163 21.579-104.131.696-9.012 1.406-18.222 2.281-27.377-5.039.952-9.798 2.188-14.452 3.45z" class="colorFFADDB svgShape"/><path fill="#ffffff" d="M987.684 123.351c1.574.155 3.15.222 4.72.222 3.142-.002 6.26-.322 9.322-.842 3.056-.557 6.077-1.297 8.959-2.4a56.059 56.059 0 0 1-4.551.679c-1.518.179-3.04.303-4.56.37a61.548 61.548 0 0 1-9.065-.175 45.795 45.795 0 0 1-8.782-1.616 35.533 35.533 0 0 1-8.093-3.351l-2.765-1.567.02 3.267c.052 8.31.431 16.566 1.017 24.833.591 8.262 1.45 16.51 2.63 24.725 1.189 8.212 2.739 16.395 4.952 24.437 1.14 4.01 2.422 7.997 4.13 11.827.841 1.918 1.808 3.789 2.947 5.555 1.123 1.764 2.478 3.431 4.153 4.662a16.334 16.334 0 0 1-1.879-2.432c-.522-.879-1.022-1.763-1.444-2.691-.862-1.844-1.546-3.765-2.17-5.703-.62-1.941-1.119-3.921-1.607-5.901-.484-1.982-.911-3.98-1.297-5.988-1.565-8.027-2.605-16.166-3.557-24.313-.934-8.152-1.678-16.334-2.364-24.525-.592-7.193-1.114-14.41-1.579-21.607a38.696 38.696 0 0 0 6.153 1.836c1.559.338 3.136.552 4.71.698zM1065.149 151.001l-29.681 41.453-20.659-19.393-12.443 15.837 35.032 23.165 44.72-48.053-16.969-13.009z" class="colorFFF svgShape"/><path fill="#ff80c8" d="M468.872 498.136h94.437c9.688 0 17.543 7.854 17.543 17.543v46.59c0 9.688-7.854 17.543-17.543 17.543v13.825l-17.045-13.825h-77.392c-9.688 0-17.543-7.854-17.543-17.543v-46.59c.001-9.689 7.855-17.543 17.543-17.543z" class="colorFF80C8 svgShape"/><path fill="#ffffff" d="M568.556 536.918a7.09 7.09 0 0 0-7.09-7.09 7.09 7.09 0 0 0-7.09 7.09 7.09 7.09 0 1 0 14.18 0zM545.868 536.918a7.09 7.09 0 0 0-7.09-7.09 7.09 7.09 0 0 0-7.09 7.09 7.09 7.09 0 0 0 7.09 7.09 7.09 7.09 0 0 0 7.09-7.09zM523.181 536.918a7.09 7.09 0 0 0-7.09-7.09 7.09 7.09 0 0 0-7.09 7.09 7.09 7.09 0 1 0 14.18 0zM500.493 536.634a7.09 7.09 0 1 0-14.18 0 7.09 7.09 0 0 0 7.09 7.09 7.09 7.09 0 0 0 7.09-7.09zM477.805 536.634a7.09 7.09 0 0 0-7.09-7.09c-3.916 0-7.09 3.174-7.09 7.09s3.174 7.09 7.09 7.09a7.09 7.09 0 0 0 7.09-7.09z" class="colorFFF svgShape"/><path fill="#5e58b8" d="m771.43 105.588-47.429 4.753 13.342-24.67z" class="color5E58B8 svgShape"/><path fill="#8c88db" d="m728.015 117.805-62.649-15.781 76.632-6.515zM665.303 101.95l93.646-48.033-12.724 22.611z" class="color8C88DB svgShape"/><path fill="#736ecc" d="m665.366 102.024 76.804-6.315 29.26 9.879-25.217-29.411z" class="color736ECC svgShape"/><path fill="#ff91da" d="M427.486 380.68c.38.613.501 1.353.323 2.081a2.71 2.71 0 0 1-1.892 1.978l-9.171 2.675a2.71 2.71 0 0 1-2.659-.65 2.712 2.712 0 0 1-.766-2.628l2.269-9.28a2.71 2.71 0 0 1 1.893-1.978 2.71 2.71 0 0 1 2.659.65l6.902 6.605c.172.167.32.351.442.547zm-12.003 4.406c.034.054.07.094.096.118.073.07.273.222.563.137l9.171-2.675a.567.567 0 0 0 .4-.419.567.567 0 0 0-.162-.555l-6.902-6.605a.568.568 0 0 0-.562-.138.568.568 0 0 0-.401.418l-2.269 9.28a.555.555 0 0 0 .066.439zM1258.613 418.937c.38.613.501 1.353.323 2.081a2.711 2.711 0 0 1-1.892 1.978l-9.171 2.675a2.71 2.71 0 0 1-2.659-.65 2.712 2.712 0 0 1-.766-2.628l2.269-9.28a2.71 2.71 0 0 1 1.893-1.978 2.708 2.708 0 0 1 2.659.651l6.902 6.604c.173.167.321.351.442.547zm-12.002 4.407c.033.054.07.094.096.118a.57.57 0 0 0 .563.138l9.171-2.675a.57.57 0 0 0 .401-.419.57.57 0 0 0-.162-.556l-6.902-6.605a.568.568 0 0 0-.562-.138.568.568 0 0 0-.401.418l-2.269 9.28a.553.553 0 0 0 .065.439z" class="colorFF91DA svgShape"/><path fill="#ffb86b" d="m400.528 626.62 3.374-3.373a1.96 1.96 0 1 0-2.773-2.773l-3.374 3.374-3.374-3.374a1.96 1.96 0 1 0-2.773 2.773l3.373 3.373-3.367 3.367a1.96 1.96 0 1 0 2.772 2.773l3.367-3.367 3.367 3.367c.383.383.885.574 1.386.574a1.96 1.96 0 0 0 1.386-3.347l-3.364-3.367zM1212.031 526.447l3.373-3.374a1.96 1.96 0 1 0-2.773-2.773l-3.374 3.374-3.373-3.374a1.96 1.96 0 1 0-2.773 2.773l3.374 3.374-3.367 3.367a1.96 1.96 0 1 0 2.772 2.773l3.367-3.367 3.367 3.367c.383.383.885.574 1.386.574a1.96 1.96 0 0 0 1.386-3.347l-3.365-3.367z" class="colorFFB86B svgShape"/><path fill="#736fc7" d="M264.043 491.231c-4.248 0-7.705-3.456-7.705-7.705 0-4.249 3.457-7.705 7.705-7.705s7.705 3.456 7.705 7.705c-.001 4.249-3.457 7.705-7.705 7.705zm0-12.998a5.3 5.3 0 0 0-5.294 5.294 5.3 5.3 0 0 0 5.294 5.294 5.3 5.3 0 0 0 5.294-5.294 5.301 5.301 0 0 0-5.294-5.294zM1123.679 344.773c-4.249 0-7.705-3.457-7.705-7.705 0-4.249 3.457-7.705 7.705-7.705s7.705 3.456 7.705 7.705c-.001 4.249-3.457 7.705-7.705 7.705zm0-12.998a5.3 5.3 0 0 0-5.294 5.294 5.3 5.3 0 0 0 5.294 5.294 5.3 5.3 0 0 0 5.294-5.294 5.3 5.3 0 0 0-5.294-5.294z" class="color736FC7 svgShape"/><path fill="#dbd9ff" d="M1180.066 906.002H96.1a2.3 2.3 0 0 1-2.3-2.3v-.31a2.3 2.3 0 0 1 2.3-2.3h1083.966a2.3 2.3 0 0 1 2.3 2.3v.31a2.3 2.3 0 0 1-2.3 2.3zM1267.9 906.002h-62.481a2.3 2.3 0 0 1-2.3-2.3v-.31a2.3 2.3 0 0 1 2.3-2.3h62.481a2.3 2.3 0 0 1 2.3 2.3v.31a2.3 2.3 0 0 1-2.3 2.3z" class="colorDBD9FF svgShape"/></svg>