<svg xmlns="http://www.w3.org/2000/svg" enable-background="new 0 0 1700 1100" viewBox="0 0 1700 1100"><path fill="#ecf4ff" fill-rule="evenodd" d="M807.46 163.81c-71.26 24.21-139 76.05-192.35 124.38C504 388.85 487.42 410.01 350.35 494.51c-79.89 49.25-142.87 90.9-173.91 146.61C89.27 797.59 193.1 966.6 410.67 966.6h884.46s104.04 2.15 179.96-81.49c257.33-283.47-169.46-890.57-667.63-721.3" clip-rule="evenodd" class="colorecf4ff svgShape"/><path fill="#cc273f" d="M1171.46 332.94h-44.2c-2.47 0-4.73 1.02-6.37 2.66l-.01-.01a8.995 8.995 0 0 0-2.64 6.38V351h62.25v-9.03c0-2.47-1.02-4.73-2.66-6.37-1.64-1.64-3.9-2.66-6.37-2.66m-44.2-12.75h44.2c5.99 0 11.44 2.45 15.39 6.39 3.94 3.95 6.39 9.39 6.39 15.39v21.78h-87.76v-21.78c0-5.98 2.45-11.42 6.4-15.36v-.03c3.94-3.95 9.38-6.39 15.38-6.39z" class="colorcc273f svgShape"/><path fill="#f09a20" d="M1305.32 365.15v156.91c0 8.67-7.02 15.69-15.68 15.69h-34.99c8.67 0 15.69-7.02 15.69-15.69V365.15c0-8.67-7.02-15.68-15.69-15.68h34.99c8.66 0 15.68 7.01 15.68 15.68" class="colorf09a20 svgShape"/><path fill="#ffc111" d="M1254.66 537.75h-219.8c-8.66 0-15.68-7.02-15.68-15.68V365.15c0-8.66 7.02-15.68 15.68-15.68h219.8c8.66 0 15.68 7.02 15.68 15.68v156.92c-.01 8.66-7.02 15.68-15.68 15.68" class="colorffc111 svgShape"/><path fill="#ffc111" d="M1270.33 365.14v156.92c0 8.66-7.03 15.69-15.68 15.69h-219.8c-8.66 0-15.67-7.02-15.67-15.69V365.14c0-8.66 7.01-15.68 15.67-15.68h219.8c8.65 0 15.68 7.03 15.68 15.68" class="colorffc111 svgShape"/><path fill="#ffc111" d="M1255.89 443.36c0 7.88-6.39 14.27-14.27 14.27-7.89 0-14.27-6.39-14.27-14.27s6.39-14.27 14.27-14.27c7.88-.01 14.27 6.38 14.27 14.27" class="colorffc111 svgShape"/><path fill="none" stroke="#fdbe42" stroke-miterlimit="10" stroke-width=".157" d="M1255.89 443.36c0 7.88-6.39 14.27-14.27 14.27-7.89 0-14.27-6.39-14.27-14.27s6.39-14.27 14.27-14.27c7.89-.01 14.27 6.38 14.27 14.27z" class="colorStrokefdbe42 svgStroke"/><path fill="#f09a20" fill-rule="evenodd" d="M1104.98 417.83h83.66v49.78h-83.66z" clip-rule="evenodd" class="colorf09a20 svgShape"/><path fill="#cc273f" d="M1185.97 263.96h-76.7c-3.96 0-7.57 1.63-10.2 4.25-2.62 2.62-4.25 6.23-4.25 10.19v302.59h105.59V278.4c0-3.98-1.62-7.59-4.23-10.21a14.432 14.432 0 0 0-10.21-4.23m-76.7-13.62h76.7c7.71 0 14.72 3.15 19.8 8.24l.03.03c5.08 5.08 8.23 12.09 8.23 19.8v316.21H1081.2V278.4c0-7.73 3.16-14.74 8.24-19.83 5.09-5.08 12.1-8.23 19.83-8.23zm123.19 287.41h80.98c8.46 0 15.32 6.86 15.32 15.32v356.68c0 8.47-6.86 15.32-15.32 15.32h-80.98c-8.46 0-15.31-6.85-15.31-15.32V553.07c-.01-8.46 6.85-15.32 15.31-15.32" class="colorcc273f svgShape"/><path fill="#ee4858" d="M1244.57 537.75h-233.36c-8.46 0-15.32 6.86-15.32 15.32v356.68c0 8.47 6.86 15.32 15.32 15.32h233.36c8.46 0 15.32-6.85 15.32-15.32V553.07c-.01-8.46-6.87-15.32-15.32-15.32" class="coloree4858 svgShape"/><path fill="#991b33" d="M1076.65 924.99h-43.18v14.17c0 11.92 9.67 21.58 21.58 21.58 11.92 0 21.59-9.66 21.59-21.58v-14.17z" class="color991b33 svgShape"/><path fill="#7c1227" d="M1033.47 925h43.17v8.23h-43.17z" class="color7c1227 svgShape"/><path fill="#cc273f" d="M1225.38 924.99h-43.18v14.17c0 11.92 9.67 21.58 21.59 21.58s21.59-9.66 21.59-21.58v-14.17z" class="colorcc273f svgShape"/><path fill="#cc273f" d="M1182.2 925h43.18v8.23h-43.18zm-131.78-347.54c-5.68 0-10.29 4.6-10.29 10.28v278.79c0 5.68 4.6 10.28 10.29 10.28 5.68 0 10.28-4.6 10.28-10.28V587.74c0-5.68-4.6-10.28-10.28-10.28m53.32 0c-5.68 0-10.28 4.6-10.28 10.28v278.79c0 5.68 4.61 10.28 10.28 10.28 5.68 0 10.28-4.6 10.28-10.28V587.74c0-5.68-4.6-10.28-10.28-10.28m53.32 0c-5.68 0-10.29 4.6-10.29 10.28v278.79c0 5.68 4.6 10.28 10.29 10.28 5.68 0 10.28-4.6 10.28-10.28V587.74c0-5.68-4.6-10.28-10.28-10.28m53.32 0c-5.68 0-10.28 4.6-10.28 10.28v278.79c0 5.68 4.61 10.28 10.28 10.28 5.68 0 10.29-4.6 10.29-10.28V587.74c-.01-5.68-4.61-10.28-10.29-10.28" class="colorcc273f svgShape"/><path fill="#f8bdc8" fill-rule="evenodd" d="M1106.82 585.75c1.04 0 1.9.86 1.9 1.9v268.11a1.906 1.906 0 0 1-3.81 0V587.65c.01-1.04.87-1.9 1.91-1.9m53.86 0c1.05 0 1.9.86 1.9 1.9v268.11a1.9 1.9 0 1 1-3.8 0V587.65c0-1.04.85-1.9 1.9-1.9zm53.5 0c1.05 0 1.9.86 1.9 1.9v268.11a1.9 1.9 0 1 1-3.8 0V587.65c0-1.04.86-1.9 1.9-1.9zm-161.86 0c1.04 0 1.9.86 1.9 1.9v268.11a1.906 1.906 0 0 1-3.81 0V587.65c0-1.04.86-1.9 1.91-1.9z" clip-rule="evenodd" class="colorf8bdc8 svgShape"/><path fill="#f38ca0" d="M764.63 571.57s-15.51 16.59-1.93 41.06c0 0 9.9 21.66 44.05-3.69 21.14-12.08 122.43-65.64 114.34-101.13-30.74-38.75-130.02 44.26-156.46 63.76" class="colorf38ca0 svgShape"/><path fill="#f38ca0" d="M794.32 489.5s-25.55 10.63-10.25 38.22c0 0-24.21 60.63 14.31 32.05 10.76.53 100.1-68.27 118.15-92.64 6.53-8.83 13.26-17.6 7.69-26.73-7.89-20.08-26.6-17.35-45.3-9.71-30.87 12.61-66.04 45.11-84.6 58.81" class="colorf38ca0 svgShape"/><path fill="#f38ca0" d="M809.53 408.9s-39.97 17.61-21.95 43.51c0 0 8.06 42.18 43.49 9.86 19.16-18.57 95.36-74.46 78.13-97.13-16.67-41.04-78.48 26.38-99.67 43.76" class="colorf38ca0 svgShape"/><path fill="#f38ca0" d="m790.71 456.61 83.49-127.68s14.42-27.07-6.35-38.67c0 0-17.76-16.7-43.88 17.57l-79.6 109.4s-24.87 30.07-.42 46.7c-.01-.01 27.61 26.87 46.76-7.32" class="colorf38ca0 svgShape"/><path fill="#f6adbe" d="M785.55 666.14s-42.96 82.36-118.68 89.04l-50.91 176.57h-197.2l64.39-214.74c14.1-44.96 4.82-64.96 4.82-64.96-6.33-24.74-19.17-47.56-19.42-73.58-.36-36.95 15.25-72.74 23.54-108.24 5.04-21.56 8.7-43.45 17.8-63.82 4.65-10.42 12.87-19.36 16.02-30.4 3.38-11.85 4.93-24.4 10.73-35.42 1.13-2.15 1.6-5.17 2.33-7.5 2.73-8.74 11.34-18.59 21.35-15.16 0 0 33.81 2.46 23.15 59.52 0 0-17.84 79.51-21.03 89.48-3.19 9.97 176.68 103.9 176.68 103.9l46.35-3.32s42.55 13.29 21.32 55.97l-21.24 42.66" class="colorf6adbe svgShape"/><path fill="#f496aa" d="M785.55 666.14s-42.96 82.36-118.68 89.04l-50.91 176.57h-31.92l46.59-216.08-30.98 32.72 2.24-39.62-33.68 66.09 12.21-72.83s-57.82 5.26-89.46-30.94c-.17-12.97-2.98-19.04-2.98-19.04-3.22-12.57-8.11-24.64-12.18-36.88 8.23 11.17 5.57 25.05 46.1 40.13 40.54 15.08 111.99-1.68 111.99-1.68l155.6 4.63-3.94 7.89z" class="colorf496aa svgShape"/><path fill="#023f50" d="M853.53 255.39 619.9 213.93c-7.85-1.39-15.34 3.84-16.73 11.69l-77.99 439.45c-1.39 7.85 3.84 15.34 11.69 16.73l233.63 41.46c7.85 1.4 15.34-3.84 16.73-11.68l77.99-439.46c1.39-7.84-3.84-15.34-11.69-16.73" class="color023f50 svgShape"/><path fill="#023f50" fill-rule="evenodd" d="M494.41 340.46H898.8v240.39H494.41z" clip-rule="evenodd" transform="rotate(-79.939 696.587 460.672)" class="color023f50 svgShape"/><path fill="#023f50" d="M730.98 197.77h5.95v104.84h-5.95z" transform="rotate(-79.933 733.982 250.186)" class="color023f50 svgShape"/><path fill="#023f50" d="M669.77 681.9c-1.18 6.65-7.53 11.09-14.18 9.91-6.65-1.18-11.09-7.53-9.91-14.18 1.18-6.65 7.53-11.09 14.18-9.91 6.65 1.18 11.09 7.53 9.91 14.18" class="color023f50 svgShape"/><path fill="#ffffff" fill-rule="evenodd" d="M494.41 340.46H898.8v240.39H494.41z" clip-rule="evenodd" transform="rotate(-79.939 696.587 460.672)" class="colorfff svgShape"/><path fill="#e2dcd5" fill-rule="evenodd" d="M494.41 340.46H898.8v240.39H494.41z" clip-rule="evenodd" transform="rotate(-79.939 696.587 460.672)" class="colore2dcd5 svgShape"/><path fill="#ffffff" fill-rule="evenodd" d="M582.65 414.94a2984.92 2984.92 0 0 0 47.21 50.16c50.39 52.29 104.21 104.27 160.24 156.62l-3.22 18.17c-60.33-56.23-118.24-111.92-172.29-167.96-12-12.44-23.8-24.9-35.41-37.37l3.47-19.62z" clip-rule="evenodd" class="colorfff svgShape"/><path fill="#ffffff" fill-rule="evenodd" d="m613.59 240.57 14.35 2.55c-15.56 60.11-31.2 120.17-46.79 180.23l32.44-182.78z" clip-rule="evenodd" class="colorfff svgShape"/><path fill="#ffffff" fill-rule="evenodd" d="M692.93 319.91h14.64V560.3h-14.64z" clip-rule="evenodd" transform="rotate(-79.939 700.234 440.12)" class="colorfff svgShape"/><path fill="#ffffff" fill-rule="evenodd" d="M574.58 460.4c22.65-.51 42.8-14.31 47.55-34.16 5.23-21.87-9.24-43.21-32.72-49.38l-14.83 83.54z" clip-rule="evenodd" class="colorfff svgShape"/><path fill="#aad167" fill-rule="evenodd" d="M577.08 446.29c14.06-1.33 26.23-10.28 29.33-22.84 3.44-13.96-5.06-27.56-19.5-32.5l-9.83 55.34z" clip-rule="evenodd" class="coloraad167 svgShape"/><path fill="#ffffff" fill-rule="evenodd" d="m565.98 560.82-6.83-13.48 257.9-77.5-2.78 15.66zm268.8-190.88c-5-7.1-9.96-14.19-14.9-21.27 2.64-4.1 5.19-8.21 7.76-12.37 3.47 4.99 6.95 9.99 10.45 15l-3.31 18.64zm-56.52-26.78c-4.72 1.49-9.43 2.98-14.14 4.43a4195.31 4195.31 0 0 1-58.63-90.71l18.7 3.32c17.54 27.58 35.5 55.24 54.07 82.96m-22.84 48.97c1.49-5.24 2.9-10.5 4.3-15.76l71.65 12.72-2.84 16.02-73.11-12.98z" clip-rule="evenodd" class="colorfff svgShape"/><path fill="#ffffff" fill-rule="evenodd" d="M594 350.99c27.89 4.28 55.73 8.53 83.56 12.81 30.33 4.67 60.66 9.29 90.92 13.9-.35 5.54-.54 11.1-.89 16.64-30.57-4.66-61.13-9.32-91.61-14.02-28.33-4.36-56.61-8.68-84.87-13.03l2.89-16.3z" clip-rule="evenodd" class="colorfff svgShape"/><path fill="#ffffff" fill-rule="evenodd" d="M715.29 445.82c-5.76-2.01-11.6-4.03-17.37-6.04 4.25-19.94 8.51-39.91 12.85-59.88 5.5 2.59 11.01 5.13 16.52 7.68-4 19.44-8 38.84-12 58.24m-57.41-11.89c-5.69-1.99-11.45-4-17.21-6.01 4.79-19.84 9.67-39.71 14.47-59.59 5.42 2.57 10.86 5.11 16.36 7.65-4.55 19.35-9.01 38.66-13.62 57.95m83.01-130.14c-2.8-4.84-5.59-9.73-8.38-14.61 31.84.59 63.46 1.1 94.85 1.61l21.4.33-2.58 14.53c-3.32-.05-6.65-.11-9.98-.17-31.53-.53-63.31-1.07-95.31-1.69" clip-rule="evenodd" class="colorfff svgShape"/><path fill="#ffffff" fill-rule="evenodd" d="M808.87 294.72c-5.56.89-11.2 1.77-16.76 2.62-3.37-8.96-6.75-17.91-10.12-26.89l18.92 3.36c2.65 6.98 5.28 13.96 7.96 20.91M558.81 549.24c52.21 3.03 104.17 6.02 155.77 8.94-1.16 4.76-2.24 9.5-3.4 14.22-51.32-2.95-102.98-5.96-154.89-9.01l2.52-14.15zm-9.25 52.15c33.25 2.27 66.47 4.5 99.5 6.74 42.41 2.88 84.75 5.64 126.86 8.41-1.01 4.79-2.02 9.58-3.02 14.33-42.34-2.81-84.99-5.62-127.55-8.53-32.65-2.23-65.45-4.49-98.3-6.76l2.51-14.19z" clip-rule="evenodd" class="colorfff svgShape"/><path fill="#ffffff" fill-rule="evenodd" d="M726.61 622.97c-7.64.48-15.35.95-23.14 1.4-19.78-21.11-39.33-42.18-58.41-63.16 7.62-.44 15.18-.93 22.74-1.43 19.32 21.02 38.95 42.11 58.81 63.19m72.34-51.13c-28.73-24.16-56.86-48.25-84.53-72.26 2.94-4.04 5.89-8.09 8.76-12.19 25.83 22.47 52.07 45 78.76 67.59l-2.99 16.86z" clip-rule="evenodd" class="colorfff svgShape"/><path fill="#ffffff" fill-rule="evenodd" d="M708.21 668.07c-2.55-15.2-5.08-30.41-7.49-45.62 6.22-1 12.37-2.06 18.59-3.1 2.88 17.41 5.88 34.84 9 52.3l-20.1-3.58z" clip-rule="evenodd" class="colorfff svgShape"/><path fill="#aad167" fill-rule="evenodd" d="M711.19 572.4c-11.1-.63-22.34-1.28-33.52-1.92 12.93 14.03 26.01 28.08 39.25 42.16 14.37.98 28.75 1.92 43.05 2.85-16.45-14.38-32.73-28.73-48.78-43.09m108.69-118.5-7.32-1.3c-31.66-5.62-63.49-11.27-95.23-16.9l9.87-47.55c33.76 5.76 67.52 11.5 101.29 17.23l-8.61 48.52z" clip-rule="evenodd" class="coloraad167 svgShape"/><path fill="#d0c8b8" fill-rule="evenodd" d="M709.56 385.42c-3.34 15.71-6.69 31.42-10.11 47.11-13.1-2.33-26.35-4.68-39.53-7.02 3.6-15.35 7.2-30.7 10.72-46.06 13 2 26 3.99 38.92 5.97m128.08-34.77.45.64.11-.64zm-80.75-13.83c-9.35-14.02-18.48-28-27.52-41.96-38.03.23-76.37.42-114.94.56-3.69 14.08-7.3 28.17-10.99 42.25 51.61-.21 102.76-.49 153.45-.85m-156.94 15.09c36.01 5.76 71.96 11.47 107.81 17.21 35.86 5.74 71.8 11.44 107.67 17.14a8364.383 8364.383 0 0 1-54.1-35.04c-53.31.34-107.07.57-161.38.69" clip-rule="evenodd" class="colord0c8b8 svgShape"/><path fill="#ffffff" fill-rule="evenodd" d="M843.43 321.18c-16.73-15.82-36.3-33-56.61-49.87l-132.14-23.45c16.57 13.88 27.63 23.52 43.6 35.43 38.47 28.68 71.74 64.09 94.5 104.32 12.34 21.82 21.63 45.01 26.57 69.28l24.08-135.71z" clip-rule="evenodd" class="colorfff svgShape"/><path fill="#9bcbed" fill-rule="evenodd" d="M826.08 418.96c-8.57-22.41-20.51-43.09-34.49-62.24-30.37-41.6-70.74-75.81-110.56-104.18l86.88 15.42c26.12 19.85 51.04 41.91 73.16 66.51l-14.99 84.49z" clip-rule="evenodd" class="color9bcbed svgShape"/><path fill="#ffffff" d="M801.37 558.16c-13.68 18.56-26.08 41.09-35.4 68.7 6.19 1.86 12.31 3.66 18.35 5.45 2.26-6.98 4.75-13.62 7.43-19.92l9.62-54.23z" class="colorfff svgShape"/><path fill="#ffffff" fill-rule="evenodd" d="M596.36 337.65c77.34-.29 153.7-.66 229.05-1.39l15.37-.15-2.58 14.55-14.73.12c-75.55.61-152.04.95-229.64 1.1l2.53-14.23z" clip-rule="evenodd" class="colorfff svgShape"/><path fill="#54849f" fill-rule="evenodd" d="m708.72 239.72 52.3 8.85c1.94.33 3.26 2.18 2.93 4.13a3.593 3.593 0 0 1-4.13 2.93l-52.3-8.85a3.588 3.588 0 0 1-2.93-4.13 3.593 3.593 0 0 1 4.13-2.93" clip-rule="evenodd" class="color54849f svgShape"/><path fill="#f6adbe" d="m880.11 931.75-23.38-51.67-103.81-43.56s-18.07-1.66-34.55-66.61c0 0-16.97-56.46-38.77-77.25 0 0-2.79-1.9.35-4.78 10.03-9.23 51.72-28.77 93.44 66.36l-57.72-153.83-61.4-148.24s-17.41-37.82 4.93-51.82c0 0 19.18-13.86 40.76 24.45l78.83 152.07s-19.31-49.42 17.08-61.56c0 0 26.11-8.58 41.07 46.11 0 0-13.6-47.95 21.41-57.54 0 0 28.04-4.96 38.08 35.27 0 0 .25-30.14 28.25-32.12 0 0 27.64-4.21 51.23 79.1l50.19 138.13s15.37 48.47-3.86 84.69l45.81 122.8H880.11z" class="colorf6adbe svgShape"/><path fill="#f496aa" d="m880.11 931.75-23.38-51.67-103.81-43.56s-11.86-1.09-25.13-36.07c.14.21 15.37 22.92 69.01 40.94 33.76 11.34 89.76 29.04 137.67 29.89l-22.87 18.98 20.75 41.49h-52.24zM707.74 680.16c13.83 1.48 30.17 3.65 53.4 41.44l-45.48-121.2-61.4-148.24s-13.28-28.86-1.75-45.49c-.57 6.12-.1 12.86 2.64 19.2 8 18.53 82.09 182.3 104.83 243.76 22.73 61.47 36.21 119.57 36.21 119.57s-22.31 0-41.68-40.42c-14.67-30.61-29.1-54.46-46.77-68.62" class="colorf496aa svgShape"/><path fill="#cb3e32" fill-rule="evenodd" d="m654.55 372.18-59.33-102.76c-5.97-10.34-9.58-22.26-9.58-35.06 0-38.06 30.85-68.91 68.91-68.91 38.06 0 68.91 30.85 68.91 68.91 0 12.8-3.61 24.72-9.58 35.06l-59.33 102.76z" clip-rule="evenodd" class="colorcb3e32 svgShape"/><path fill="#e66259" fill-rule="evenodd" d="M654.55 165.46c38.06 0 68.91 30.85 68.91 68.91 0 12.8-3.61 24.72-9.58 35.06l-59.33 102.76V165.46z" clip-rule="evenodd" class="colore66259 svgShape"/><path fill="#ffffff" fill-rule="evenodd" d="M654.55 283.09c26.84 0 48.73-21.89 48.73-48.73 0-26.84-21.89-48.73-48.73-48.73-26.84 0-48.73 21.89-48.73 48.73.01 26.84 21.89 48.73 48.73 48.73" clip-rule="evenodd" class="colorfff svgShape"/><path fill="#ffffff" fill-rule="evenodd" d="M654.55 283.09c26.84 0 48.73-21.89 48.73-48.73 0-26.84-21.89-48.73-48.73-48.73v97.46z" clip-rule="evenodd" class="colorfff svgShape"/><path fill="#cb3e32" fill-rule="evenodd" d="M654.55 203.62c16.98 0 30.74 13.76 30.74 30.74 0 16.98-13.76 30.74-30.74 30.74-16.98 0-30.74-13.76-30.74-30.74 0-16.97 13.76-30.74 30.74-30.74" clip-rule="evenodd" class="colorcb3e32 svgShape"/><path fill="#e66259" fill-rule="evenodd" d="M654.55 203.62c16.98 0 30.74 13.76 30.74 30.74 0 16.98-13.76 30.74-30.74 30.74v-61.48z" clip-rule="evenodd" class="colore66259 svgShape"/><path fill="#ffffff" fill-rule="evenodd" d="M518.17 692.77h76.53v223.84h-76.53z" clip-rule="evenodd" transform="rotate(-74.87 556.48 804.726)" class="colorfff svgShape"/><path fill="#e4e5e6" fill-rule="evenodd" d="M572.19 763.33h76.53v111.92h-76.53z" clip-rule="evenodd" transform="rotate(-74.877 610.388 819.25)" class="colore4e5e6 svgShape"/><path fill="#253f8c" fill-rule="evenodd" d="m428.77 765.73 255.06 68.95-35.76 126.07H369.25z" clip-rule="evenodd" class="color253f8c svgShape"/><path fill="#ffffff" fill-rule="evenodd" d="M853.11 888.53h223.84v33.97H853.11z" clip-rule="evenodd" transform="rotate(-18.314 965.15 905.616)" class="colorfff svgShape"/><path fill="#e4e5e6" fill-rule="evenodd" d="M855.94 906.11h111.92v33.98H855.94z" clip-rule="evenodd" transform="rotate(-18.305 912.047 923.159)" class="colore4e5e6 svgShape"/><path fill="#253f8c" fill-rule="evenodd" d="m1097.02 879.73-244.81 81.02h274.59z" clip-rule="evenodd" class="color253f8c svgShape"/><path fill="#cc273f" fill-rule="evenodd" d="M1120.2 245.81h54.59c6.3 0 11.44 5.15 11.44 11.44 0 6.29-5.15 11.44-11.44 11.44h-54.59c-6.29 0-11.44-5.15-11.44-11.44 0-6.29 5.15-11.44 11.44-11.44" clip-rule="evenodd" class="colorcc273f svgShape"/><path fill="#ffffff" fill-rule="evenodd" d="M542.93 638.74c24.78-.56 46.82-15.65 52.02-37.37 5.73-23.93-10.11-47.27-35.8-54.02l-16.22 91.39z" clip-rule="evenodd" class="colorfff svgShape"/><path fill="#aad167" fill-rule="evenodd" d="M545.67 623.3c15.38-1.46 28.7-11.24 32.08-24.99 3.76-15.27-5.54-30.15-21.34-35.56l-10.74 60.55zm160.48 32.46c-1.65-9.88-3.27-19.76-4.85-29.65-18.65-1.24-37.31-2.5-55.96-3.77l-58.74-4.04c-9.78 12.28-26.03 20.04-43.67 20.44l87.75 15.57 77.53 13.76c-.69-4.11-1.38-8.21-2.06-12.31m-15.23-44.83c-13.06-14.01-26-27.99-38.75-41.94-21.72-1.26-43.49-2.53-65.3-3.81 7.89 10.13 11.22 23.06 8.09 36.18a44.01 44.01 0 0 1-.85 3.04c18.36 1.24 36.69 2.48 54.96 3.72 13.95.95 27.9 1.89 41.85 2.81" clip-rule="evenodd" class="coloraad167 svgShape"/><path fill="#f8bdc8" fill-rule="evenodd" d="M1009.47 545.66h217.74c1.71 0 3.12 1.4 3.12 3.12 0 1.72-1.4 3.12-3.12 3.12h-217.74a3.13 3.13 0 0 1-3.12-3.12 3.13 3.13 0 0 1 3.12-3.12m231.24-.97c2.87 0 5.19 1.78 5.19 3.98s-2.33 3.98-5.19 3.98c-2.87 0-5.19-1.78-5.19-3.98s2.32-3.98 5.19-3.98" clip-rule="evenodd" class="colorf8bdc8 svgShape"/><path fill="#f09a20" d="M1262.75 365.71v23.63c-.89.09-1.8.13-2.71.13-16.23 0-29.4-13.16-29.4-29.4 0-1.44.1-2.85.31-4.23h21.93c5.46.01 9.87 4.43 9.87 9.87m0 155.5v-23.63c-.89-.09-1.8-.13-2.71-.13-16.23 0-29.4 13.16-29.4 29.4 0 1.44.1 2.85.31 4.23h21.93c5.46-.01 9.87-4.42 9.87-9.87m-235.32-155.5v23.63c.88.09 1.8.13 2.71.13 16.23 0 29.4-13.16 29.4-29.4 0-1.44-.1-2.85-.31-4.23h-21.93c-5.45.01-9.87 4.43-9.87 9.87m0 155.5v-23.63c.88-.09 1.8-.13 2.71-.13 16.23 0 29.4 13.16 29.4 29.4 0 1.44-.1 2.85-.31 4.23h-21.93c-5.45-.01-9.87-4.42-9.87-9.87" class="colorf09a20 svgShape"/><path fill="#031542" fill-rule="evenodd" d="M190.89 960.75h1316.23c1.86 0 3.39 1.52 3.39 3.37s-1.53 3.37-3.39 3.37H190.89c-1.86 0-3.39-1.52-3.39-3.37 0-1.86 1.52-3.37 3.39-3.37" clip-rule="evenodd" class="color031542 svgShape"/></svg>